{
  "accessors": [
    {
      "bufferView": 2,
      "componentType": 5126,
      "count": 65532,
      "max": [
        22.143129348754883,
        -0.80862140655517578,
        9.1173667907714844
      ],
      "min": [
        1.1756143569946289,
        -26.456951141357422,
        -9.425567626953125
      ],
      "type": "VEC3"
    },
    {
      "bufferView": 2,
      "byteOffset": 786384,
      "componentType": 5126,
      "count": 65532,
      "max": [
        0.99976712465286255,
        0.99929159879684448,
        0.9999927282333374
      ],
      "min": [
        -0.99991178512573242,
        -0.99999904632568359,
        -0.99999934434890747
      ],
      "type": "VEC3"
    },
    {
      "bufferView": 3,
      "componentType": 5126,
      "count": 65532,
      "max": [
        1,
        1,
        0.99999809265136719,
        -1
      ],
      "min": [
        -0.99999868869781494,
        -0.99999797344207764,
        -0.99999195337295532,
        -1
      ],
      "type": "VEC4"
    },
    {
      "bufferView": 3,
      "byteOffset": 1048512,
      "componentType": 5126,
      "count": 65532,
      "max": [
        0.95686274766921997,
        0.9686274528503418,
        0.82745099067687988,
        1
      ],
      "min": [
        0.011764706112444401,
        0.011764706112444401,
        0,
        1
      ],
      "type": "VEC4"
    },
    {
      "bufferView": 1,
      "componentType": 5126,
      "count": 65532,
      "max": [
        0.99975597858428955,
        0.986083984375
      ],
      "min": [
        0.00024399999529123306,
        0.00024399999529123306
      ],
      "type": "VEC2"
    },
    {
      "bufferView": 0,
      "componentType": 5125,
      "count": 293160,
      "max": [
        65531
      ],
      "min": [
        0
      ],
      "type": "SCALAR"
    },
    {
      "bufferView": 2,
      "byteOffset": 1572768,
      "componentType": 5126,
      "count": 65532,
      "max": [
        20.929553985595703,
        0.13664817810058594,
        18.039936065673828
      ],
      "min": [
        -15.730184555053711,
        -25.892452239990234,
        -7.3965110778808594
      ],
      "type": "VEC3"
    },
    {
      "bufferView": 2,
      "byteOffset": 2359152,
      "componentType": 5126,
      "count": 65532,
      "max": [
        0.99970680475234985,
        0.99944204092025757,
        0.99990952014923096
      ],
      "min": [
        -0.99934518337249756,
        -0.99999994039535522,
        -0.99999797344207764
      ],
      "type": "VEC3"
    },
    {
      "bufferView": 3,
      "byteOffset": 2097024,
      "componentType": 5126,
      "count": 65532,
      "max": [
        1,
        0.9999813437461853,
        0.99999523162841797,
        -1
      ],
      "min": [
        -0.99999988079071045,
        -0.99999195337295532,
        -0.99997293949127197,
        -1
      ],
      "type": "VEC4"
    },
    {
      "bufferView": 3,
      "byteOffset": 3145536,
      "componentType": 5126,
      "count": 65532,
      "max": [
        0.99215686321258545,
        0.99607843160629272,
        0.89803922176361084,
        1
      ],
      "min": [
        0.015686275437474251,
        0.015686275437474251,
        0,
        1
      ],
      "type": "VEC4"
    },
    {
      "bufferView": 1,
      "byteOffset": 524256,
      "componentType": 5126,
      "count": 65532,
      "max": [
        0.99975597858428955,
        0.98022401332855225
      ],
      "min": [
        0.00024399999529123306,
        0.00024399999529123306
      ],
      "type": "VEC2"
    },
    {
      "bufferView": 0,
      "byteOffset": 1172640,
      "componentType": 5125,
      "count": 280725,
      "max": [
        65531
      ],
      "min": [
        0
      ],
      "type": "SCALAR"
    },
    {
      "bufferView": 2,
      "byteOffset": 3145536,
      "componentType": 5126,
      "count": 65532,
      "max": [
        9.0163078308105469,
        0.16726303100585938,
        18.197093963623047
      ],
      "min": [
        -15.57359504699707,
        -15.415870666503906,
        -3.5957679748535156
      ],
      "type": "VEC3"
    },
    {
      "bufferView": 2,
      "byteOffset": 3931920,
      "componentType": 5126,
      "count": 65532,
      "max": [
        0.99999511241912842,
        0.99970144033432007,
        0.99970245361328125
      ],
      "min": [
        -0.99862200021743774,
        -0.99999994039535522,
        -0.99999469518661499
      ],
      "type": "VEC3"
    },
    {
      "bufferView": 3,
      "byteOffset": 4194048,
      "componentType": 5126,
      "count": 65532,
      "max": [
        1,
        1,
        0.99999922513961792,
        -1
      ],
      "min": [
        -0.9999997615814209,
        -0.99999737739562988,
        -0.99987465143203735,
        -1
      ],
      "type": "VEC4"
    },
    {
      "bufferView": 3,
      "byteOffset": 5242560,
      "componentType": 5126,
      "count": 65532,
      "max": [
        0.99607843160629272,
        0.99607843160629272,
        0.89803922176361084,
        1
      ],
      "min": [
        0.011764706112444401,
        0.019607843831181526,
        0,
        1
      ],
      "type": "VEC4"
    },
    {
      "bufferView": 1,
      "byteOffset": 1048512,
      "componentType": 5126,
      "count": 65532,
      "max": [
        0.99975597858428955,
        0.939208984375
      ],
      "min": [
        0.00024399999529123306,
        0.00024399999529123306
      ],
      "type": "VEC2"
    },
    {
      "bufferView": 0,
      "byteOffset": 2295540,
      "componentType": 5125,
      "count": 226902,
      "max": [
        65531
      ],
      "min": [
        0
      ],
      "type": "SCALAR"
    },
    {
      "bufferView": 2,
      "byteOffset": 4718304,
      "componentType": 5126,
      "count": 65532,
      "max": [
        17.927417755126953,
        0.2560272216796875,
        19.869815826416016
      ],
      "min": [
        -20.451217651367188,
        -25.021507263183594,
        -3.8909645080566406
      ],
      "type": "VEC3"
    },
    {
      "bufferView": 2,
      "byteOffset": 5504688,
      "componentType": 5126,
      "count": 65532,
      "max": [
        0.99993032217025757,
        0.99848228693008423,
        0.99909359216690063
      ],
      "min": [
        -0.99988549947738647,
        -0.99999368190765381,
        -0.99999797344207764
      ],
      "type": "VEC3"
    },
    {
      "bufferView": 3,
      "byteOffset": 6291072,
      "componentType": 5126,
      "count": 65532,
      "max": [
        1,
        1,
        0.99999153614044189,
        1
      ],
      "min": [
        -0.99999707937240601,
        -0.99998956918716431,
        -0.99979013204574585,
        -1
      ],
      "type": "VEC4"
    },
    {
      "bufferView": 3,
      "byteOffset": 7339584,
      "componentType": 5126,
      "count": 65532,
      "max": [
        0.99607843160629272,
        0.99607843160629272,
        0.87058824300765991,
        1
      ],
      "min": [
        0,
        0,
        0,
        1
      ],
      "type": "VEC4"
    },
    {
      "bufferView": 1,
      "byteOffset": 1572768,
      "componentType": 5126,
      "count": 65532,
      "max": [
        0.99975597858428955,
        0.98803699016571045
      ],
      "min": [
        0.00024399999529123306,
        0.00024399999529123306
      ],
      "type": "VEC2"
    },
    {
      "bufferView": 0,
      "byteOffset": 3203148,
      "componentType": 5125,
      "count": 227379,
      "max": [
        65531
      ],
      "min": [
        0
      ],
      "type": "SCALAR"
    },
    {
      "bufferView": 2,
      "byteOffset": 6291072,
      "componentType": 5126,
      "count": 65532,
      "max": [
        18.801088333129883,
        0.37675094604492188,
        20.088489532470703
      ],
      "min": [
        -14.456348419189453,
        -25.468639373779297,
        -11.781536102294922
      ],
      "type": "VEC3"
    },
    {
      "bufferView": 2,
      "byteOffset": 7077456,
      "componentType": 5126,
      "count": 65532,
      "max": [
        0.99989008903503418,
        0.99981117248535156,
        0.99986129999160767
      ],
      "min": [
        -0.99987679719924927,
        -0.99999916553497314,
        -1
      ],
      "type": "VEC3"
    },
    {
      "bufferView": 3,
      "byteOffset": 8388096,
      "componentType": 5126,
      "count": 65532,
      "max": [
        1,
        1,
        0.99996834993362427,
        1
      ],
      "min": [
        -0.99999433755874634,
        -0.99999773502349854,
        -0.99999916553497314,
        -1
      ],
      "type": "VEC4"
    },
    {
      "bufferView": 3,
      "byteOffset": 9436608,
      "componentType": 5126,
      "count": 65532,
      "max": [
        0.99607843160629272,
        0.99607843160629272,
        0.81960785388946533,
        1
      ],
      "min": [
        0.0078431377187371254,
        0.0078431377187371254,
        0,
        1
      ],
      "type": "VEC4"
    },
    {
      "bufferView": 1,
      "byteOffset": 2097024,
      "componentType": 5126,
      "count": 65532,
      "max": [
        0.99975597858428955,
        0.98510700464248657
      ],
      "min": [
        0.00024399999529123306,
        0.00024399999529123306
      ],
      "type": "VEC2"
    },
    {
      "bufferView": 0,
      "byteOffset": 4112664,
      "componentType": 5125,
      "count": 260748,
      "max": [
        65531
      ],
      "min": [
        0
      ],
      "type": "SCALAR"
    },
    {
      "bufferView": 2,
      "byteOffset": 7863840,
      "componentType": 5126,
      "count": 63338,
      "max": [
        5.4842514991760254,
        0.057172775268554688,
        17.856307983398438
      ],
      "min": [
        -14.460016250610352,
        -25.495922088623047,
        -12.138086318969727
      ],
      "type": "VEC3"
    },
    {
      "bufferView": 2,
      "byteOffset": 8623896,
      "componentType": 5126,
      "count": 63338,
      "max": [
        0.99999946355819702,
        0.99942904710769653,
        0.99986129999160767
      ],
      "min": [
        -0.99721163511276245,
        -0.99999654293060303,
        -0.99999409914016724
      ],
      "type": "VEC3"
    },
    {
      "bufferView": 3,
      "byteOffset": 10485120,
      "componentType": 5126,
      "count": 63338,
      "max": [
        1,
        0.9999997615814209,
        0.99999076128005981,
        -1
      ],
      "min": [
        -1,
        -0.99998509883880615,
        -0.99994587898254395,
        -1
      ],
      "type": "VEC4"
    },
    {
      "bufferView": 3,
      "byteOffset": 11498528,
      "componentType": 5126,
      "count": 63338,
      "max": [
        0.99607843160629272,
        0.99607843160629272,
        0.83529412746429443,
        1
      ],
      "min": [
        0.011764706112444401,
        0.011764706112444401,
        0,
        1
      ],
      "type": "VEC4"
    },
    {
      "bufferView": 1,
      "byteOffset": 2621280,
      "componentType": 5126,
      "count": 63338,
      "max": [
        0.99975597858428955,
        0.99877899885177612
      ],
      "min": [
        0.00024399999529123306,
        0.00024399999529123306
      ],
      "type": "VEC2"
    },
    {
      "bufferView": 0,
      "byteOffset": 5155656,
      "componentType": 5125,
      "count": 211083,
      "max": [
        63337
      ],
      "min": [
        0
      ],
      "type": "SCALAR"
    }
  ],
  "asset": {
    "extras": {
      "author": "Geoffrey Marchal (https://sketchfab.com/geoffreymarchal)",
      "license": "CC-BY-NC-4.0 (http://creativecommons.org/licenses/by-nc/4.0/)",
      "source": "https://sketchfab.com/models/79907cd56bca4537be6cbe7096c2b977",
      "title": "Miniature of stage of \"Air des Colombes\""
    },
    "generator": "Sketchfab-3.28.7",
    "version": "2.0"
  },
  "bufferViews": [
    {
      "buffer": 0,
      "byteLength": 5999988,
      "byteOffset": 0,
      "name": "floatBufferViews",
      "target": 34963
    },
    {
      "buffer": 0,
      "byteLength": 3127984,
      "byteOffset": 5999988,
      "byteStride": 8,
      "name": "floatBufferViews",
      "target": 34962
    },
    {
      "buffer": 0,
      "byteLength": 9383952,
      "byteOffset": 9127972,
      "byteStride": 12,
      "name": "floatBufferViews",
      "target": 34962
    },
    {
      "buffer": 0,
      "byteLength": 12511936,
      "byteOffset": 18511924,
      "byteStride": 16,
      "name": "floatBufferViews",
      "target": 34962
    }
  ],
  "buffers": [
    {
      "byteLength": 31023860,
      "uri": "scene.bin"
    }
  ],
  "images": [
    {
      "uri": "textures/decor_de_theatre_air_des_colombes_-_CleanUp_-_LowPoly_Material_u1_v1_baseColor.jpeg"
    }
  ],
  "materials": [
    {
      "doubleSided": true,
      "name": "decor_de_theatre_air_des_colombes_-_CleanUp_-_LowPoly_Material_u1_v1",
      "pbrMetallicRoughness": {
        "baseColorFactor": [
          1,
          1,
          1,
          1
        ],
        "baseColorTexture": {
          "index": 0,
          "texCoord": 0
        },
        "metallicFactor": 0,
        "roughnessFactor": 1
      }
    }
  ],
  "meshes": [
    {
      "primitives": [
        {
          "attributes": {
            "COLOR_0": 3,
            "NORMAL": 1,
            "POSITION": 0,
            "TANGENT": 2,
            "TEXCOORD_0": 4
          },
          "indices": 5,
          "material": 0,
          "mode": 4
        }
      ]
    },
    {
      "primitives": [
        {
          "attributes": {
            "COLOR_0": 9,
            "NORMAL": 7,
            "POSITION": 6,
            "TANGENT": 8,
            "TEXCOORD_0": 10
          },
          "indices": 11,
          "material": 0,
          "mode": 4
        }
      ]
    },
    {
      "primitives": [
        {
          "attributes": {
            "COLOR_0": 15,
            "NORMAL": 13,
            "POSITION": 12,
            "TANGENT": 14,
            "TEXCOORD_0": 16
          },
          "indices": 17,
          "material": 0,
          "mode": 4
        }
      ]
    },
    {
      "primitives": [
        {
          "attributes": {
            "COLOR_0": 21,
            "NORMAL": 19,
            "POSITION": 18,
            "TANGENT": 20,
            "TEXCOORD_0": 22
          },
          "indices": 23,
          "material": 0,
          "mode": 4
        }
      ]
    },
    {
      "primitives": [
        {
          "attributes": {
            "COLOR_0": 27,
            "NORMAL": 25,
            "POSITION": 24,
            "TANGENT": 26,
            "TEXCOORD_0": 28
          },
          "indices": 29,
          "material": 0,
          "mode": 4
        }
      ]
    },
    {
      "primitives": [
        {
          "attributes": {
            "COLOR_0": 33,
            "NORMAL": 31,
            "POSITION": 30,
            "TANGENT": 32,
            "TEXCOORD_0": 34
          },
          "indices": 35,
          "material": 0,
          "mode": 4
        }
      ]
    }
  ],
  "nodes": [
    {
      "children": [
        1
      ],
      "name": "RootNode (gltf orientation matrix)",
      "rotation": [
        -0.70710678118654746,
        -0,
        -0,
        0.70710678118654757
      ]
    },
    {
      "children": [
        2
      ],
      "matrix": [
        -0.97744119167327881,
        0.20296074450016022,
        -0.058443255722522736,
        0,
        0.045327700674533844,
        -0.06868259608745575,
        -0.99660831689834595,
        0,
        -0.20628640055656433,
        -0.97677510976791382,
        0.057933453470468521,
        0,
        3.0573830604553223,
        -10.231364250183105,
        -10.720227241516113,
        1
      ],
      "name": "RootNode (model correction matrix)"
    },
    {
      "children": [
        3,
        4,
        5,
        6,
        7,
        8
      ],
      "name": "decor_de_theatre_air_des_colombes_-_CleanUp_-_LowPoly.obj.cleaner.materialmerger.gles"
    },
    {
      "mesh": 0,
      "name": ""
    },
    {
      "mesh": 1,
      "name": ""
    },
    {
      "mesh": 2,
      "name": ""
    },
    {
      "mesh": 3,
      "name": ""
    },
    {
      "mesh": 4,
      "name": ""
    },
    {
      "mesh": 5,
      "name": ""
    }
  ],
  "samplers": [
    {
      "magFilter": 9729,
      "minFilter": 9987,
      "wrapS": 10497,
      "wrapT": 10497
    }
  ],
  "scene": 0,
  "scenes": [
    {
      "name": "OSG_Scene",
      "nodes": [
        0
      ]
    }
  ],
  "textures": [
    {
      "sampler": 0,
      "source": 0
    }
  ]
}

